<svg width="48" height="48" viewBox="0 0 48 48" fill="none" xmlns="http://www.w3.org/2000/svg">
<g clip-path="url(#clip0)">
<path d="M48.0005 24.1473C48.0005 10.8093 37.2544 -0.0027504 24.0004 -0.0027504C10.7404 0.000249604 -0.0055542 10.8093 -0.0055542 24.1503C-0.0055542 36.2013 8.77245 46.1912 20.2444 48.0033V31.1283H14.1544V24.1503H20.2504V18.8253C20.2504 12.7743 23.8354 9.43225 29.3164 9.43225C31.9444 9.43225 34.6894 9.90325 34.6894 9.90325V15.8433H31.6624C28.6834 15.8433 27.7534 17.7063 27.7534 19.6173V24.1473H34.4074L33.3454 31.1253H27.7504V48.0003C39.2224 46.1883 48.0005 36.1983 48.0005 24.1473Z" fill="black"/>
</g>
<defs>
<clipPath id="clip0">
<rect width="48" height="48" fill="white"/>
</clipPath>
</defs>
</svg>
